<svg id="Capa_1" enable-background="new 0 0 512 512" height="512" viewBox="0 0 512 512" width="512" xmlns="http://www.w3.org/2000/svg"><g><g><path d="m502 335.526h-32.833v-116.44c0-49.202-18.457-95.562-52.085-131.191 5.456-9.72 4.061-22.277-4.198-30.537l-36.676-36.676c-9.948-9.946-26.134-9.947-36.083 0l-38.792 38.792c-13.388.212-52.311 3.706-83.776 35.171-3.905 3.905-3.905 10.237 0 14.143l107.221 107.221c3.905 3.905 10.237 3.905 14.143 0 31.465-31.465 34.96-70.389 35.172-83.776l1.185-1.185c21.903 24.175 33.889 55.186 33.889 88.039v116.44h-27.287c-16.77 0-30.412 13.643-30.412 30.412v22.421h-75.972v-37.79h42.842c5.523 0 10-4.477 10-10v-57.79c0-5.523-4.477-10-10-10h-221.054c-5.523 0-10 4.477-10 10v47.789h-32.469c-5.523 0-10 4.477-10 10v47.79h-34.815c-5.523 0-10 4.477-10 10v52.461c0 5.523 4.477 10 10 10h20v27.958c0 5.523 4.477 10 10 10s10-4.477 10-10v-27.958h35.205v27.958c0 5.523 4.477 10 10 10s10-4.477 10-10v-27.958h106.307c5.523 0 10-4.477 10-10s-4.477-10-10-10h-191.512v-32.461h472v32.461h-192.543c-5.523 0-10 4.477-10 10s4.477 10 10 10h107.338v27.958c0 5.523 4.477 10 10 10s10-4.477 10-10v-27.958h35.205v27.958c0 5.523 4.477 10 10 10s10-4.477 10-10v-27.958h20c5.523 0 10-4.477 10-10v-52.461-52.833c0-5.523-4.477-10-10-10zm-147.731-300.702c2.149-2.149 5.648-2.15 7.797 0l36.676 36.676c2.15 2.15 2.15 5.648 0 7.798l-34.699 34.699-44.474-44.474zm-22.786 159.603-92.339-92.339c24.455-19.781 52.405-22.334 62.115-22.59l52.828 52.828c-.212 9.703-2.671 37.531-22.604 62.101zm57.955-77.537 14.154-14.154c29.44 31.751 45.575 72.811 45.575 116.349v116.44h-20v-116.44c0-38.196-14.058-74.23-39.729-102.195zm-81.1 213.679h-32.682v-37.789h32.682zm-52.682-37.789v37.789h-95.691v-37.789zm-148.372 0h32.681v37.789h-32.681zm-42.469 95.578v-37.79h190.68v37.79zm306.653 0v-22.421c0-5.741 4.671-10.412 10.412-10.412h110.12v32.833z"/><path d="m265.23 446.994c-3.453-8.29-15.603-7.946-18.638.459-3.089 8.557 6.461 16.508 14.332 12.061 4.354-2.459 6.197-7.908 4.306-12.52z"/></g></g></svg>